<svg version="1.2" xmlns="http://www.w3.org/2000/svg" viewBox="0 0 5000 1000" width="200" height="40">
	<title>cm2025</title>
	<style>
		.s0 { fill: #30bced } 
		.s1 { fill: #000000 } 
	</style>
	<path id="cullmedia" class="s0" aria-label="cullmedia"  d="m483 857q-71.3 0-128-30-56.1-30.7-89-87-32.2-57.7-32.2-135.9v-11.1q0-78.9 32.2-135 32.9-57.2 89-87 56.7-30.9 128-30.9 70.3 0 119 26.9 49.7 25.2 78 69 29 41.8 36.9 91.1l-77.3 16.1q-4.7-36.4-23.6-66.2-17.6-30.3-51-48-32.5-18.1-81.2-18.1-48.6 0-87.8 23.1-38.1 21.3-61 63-22.1 40.3-22.1 97.3v8.5q0 57 22.1 98.2 22.9 40.8 61 64 39.2 21.2 87.8 21.2 73.4 0 111.2-37.2 38.9-38.9 48.3-95.4l77.3 17q-10.2 48.7-39.6 92.4-29.3 41.9-79 68-48.7 26-119 26zm560.4-4.6q-53.8 0-98.4-22.4-43.8-24.2-70-69-25.3-45.6-25.3-110.9v-296h79.1v290.3q0 72.3 36.2 106.6 36.5 32.3 98.9 32.3 70.1 0 114.1-45.3 45.5-47.3 45.5-138.3v-245.6h79.2v488.9h-77.2v-82.8h-13.7q-16.3 35-55.8 63.8-37.8 28.4-112.6 28.4zm503.5-9.4h-79.1v-700h79.1zm245 0h-79.1v-700h79.1z"/>
	<path id="cullmedia" class="s1" aria-label="cullmedia"  d="m2036.9 843h-79.1v-488.9h77.1v61.1h13.8q14.4-26.4 46.3-48.2 32.3-22.3 89.9-22.3 57.2 0 92.1 25.3 35.5 24.9 51.8 61.5h13.7q17-36.3 51.5-61.5 34.6-25.3 97.3-25.3 48.9 0 85.7 20.3 37.4 20.1 58 58 22.3 36.8 22.3 89v331h-79.1v-324.1q0-48.8-29.2-76.9-27.7-28.5-79.2-28.5-53.7 0-88.8 35.5-33.9 33.7-33.9 99.6v294.4h-79.1v-324.1q0-48.8-29-76.9-27.9-28.5-79.4-28.5-53.7 0-88.6 35.5-34.1 33.7-34.1 99.6zm1005.5 14q-74.7 0-131.4-31-54.9-32-87-89-30.2-57.3-30.2-132.5v-12q0-75.8 30.2-132.5 31.8-56.9 86-88 55.7-31.9 126.8-31.9 69.5 0 122.2 29.9 53.1 29.4 83 85 30.1 53.7 30.1 128.3v35.2h-398.6q2.7 79.4 49.5 124.5 48.6 43.7 120.5 43.7 63.7 0 97.5-27.7 33.9-29.6 51.9-69.7l68.2 32.7q-14.7 31-42.1 63-25.6 30.4-69 52-41.8 20-107.6 20zm-167.9-302.7h317.2q-4-68.6-46.7-105.3-41.7-38.7-108.5-38.7-66.6 0-109.5 38.7-42.7 36.7-52.5 105.3zm742.4 302.7q-63.3 0-115.9-30-52.5-30.4-84-87-31.2-56.7-31.2-134.9v-13.1q0-78.2 30.2-134 31.8-57.5 84-87 53.3-30.9 116.9-30.9 51.4 0 86.1 13.9 35.5 12.8 57 34 22.9 20 35 43h13.8v-288h79.1v700h-77.1v-80.6h-13.8q-19.8 36.5-62 65.6-41.6 29-118.1 29zm20.9-70.3q75.8 0 123.2-47.7 48.3-49.3 48.3-136.2v-8.6q0-86.9-48.3-135.2-47.1-48.7-123.2-48.7-75 0-123.8 48.7-47.7 48.3-47.7 135.2v8.6q0 86.9 47.7 136.2 48.8 47.7 123.8 47.7zm495.1 56.3h-79.1v-488.9h79.1zm-39.6-565.4q-25.4 0-43.6-16.6-16.8-17.4-16.8-43.5 0-26.8 16.8-42.5 18.2-17.6 43.6-17.6 26.5 0 43.4 17.6 17.1 15.7 17.1 42.5 0 26.1-17.1 43.5-16.9 16.6-43.4 16.6zm355.9 579.4q-51.5 0-93.2-17-41.6-18.6-66-53-23.9-34.5-23.9-83.3 0-49.6 23.9-81.7 24.4-33.4 66-49 41.8-17.2 93.6-17.2h165.8v-35.8q0-52.1-31.4-82-29.7-30-89.7-30-59.1 0-93.3 29-32.4 28.2-43.7 75.7l-74.8-23.4q12-41.5 37.5-74.3 26.8-34.5 70-54 43.7-20.9 104.8-20.9 93.8 0 145.2 48.9 53.3 47.7 53.3 135.7v221.2q0 30 28 30h45v67.1h-69.8q-32.7 0-52.5-18-19.7-18.7-19.7-50.1v-5.3h-12.6q-10.4 19.1-29.7 40.4-17.9 19.8-51 34-31.2 13-81.8 13zm9.2-67.9q70.1 0 112.6-41.1 44.4-42.1 44.4-116.6v-11.5h-162.5q-47.1 0-77.9 21.1-29.8 19.6-29.8 60.8 0 41.2 30.8 65.2 31.8 22.1 82.4 22.1z"/>
</svg>