<svg version="1.2" xmlns="http://www.w3.org/2000/svg" viewBox="0 0 200 40" width="200" height="40">
	<title>New Project</title>
	<style>
		.s0 { fill: #30bced } 
		.s1 { fill: #000000 } 
	</style>
	<path id="cullmedia" class="s0" aria-label="cullmedia"  d="m11 35.6q-3.1 0-5.6-1.3-2.5-1.4-3.9-3.8-1.5-2.6-1.5-6v-0.5q0-3.5 1.5-6 1.4-2.5 3.9-3.8 2.5-1.4 5.6-1.4 3.1 0 5.3 1.2 2.2 1.1 3.4 3 1.3 1.9 1.6 4.1l-3.4 0.7q-0.2-1.6-1-2.9-0.8-1.4-2.3-2.2-1.4-0.8-3.5-0.8-2.2 0-3.9 1.1-1.7 0.9-2.7 2.7-1 1.8-1 4.3v0.4q0 2.5 1 4.3 1 1.8 2.7 2.9 1.7 0.9 3.9 0.9 3.2 0 4.9-1.6 1.7-1.8 2.1-4.3l3.4 0.8q-0.4 2.1-1.7 4.1-1.3 1.8-3.5 3-2.2 1.1-5.3 1.1zm24.7-0.2q-2.3 0-4.3-1-1.9-1-3.1-3-1.1-2-1.1-4.9v-13.1h3.5v12.8q0 3.2 1.6 4.7 1.6 1.5 4.4 1.5 3 0 5-2 2-2.1 2-6.1v-10.9h3.5v21.6h-3.4v-3.7h-0.6q-0.7 1.6-2.5 2.9-1.7 1.2-5 1.2zm22.3-0.4h-3.5v-30.9h3.5zm10.8 0h-3.5v-30.9h3.5z"/>
	<path id="cullmedia" class="s1" aria-label="cullmedia"  d="m79.6 35h-3.5v-21.6h3.4v2.7h0.6q0.6-1.1 2-2.1 1.5-1 4-1 2.5 0 4.1 1.1 1.5 1.1 2.2 2.7h0.7q0.7-1.6 2.2-2.7 1.6-1.1 4.3-1.1 2.2 0 3.8 0.9 1.6 0.9 2.6 2.6 0.9 1.6 0.9 3.9v14.6h-3.5v-14.3q0-2.1-1.2-3.4-1.3-1.2-3.5-1.2-2.4 0-3.9 1.5-1.5 1.5-1.5 4.4v13h-3.5v-14.3q0-2.1-1.3-3.4-1.2-1.2-3.5-1.2-2.4 0-3.9 1.5-1.5 1.5-1.5 4.4zm44.3 0.6q-3.3 0-5.8-1.3-2.4-1.4-3.8-4-1.3-2.5-1.3-5.8v-0.5q0-3.4 1.3-5.9 1.4-2.5 3.8-3.9 2.4-1.4 5.6-1.4 3 0 5.4 1.3 2.3 1.3 3.6 3.8 1.4 2.4 1.4 5.7v1.5h-17.6q0.1 3.5 2.2 5.5 2.1 1.9 5.3 1.9 2.8 0 4.3-1.2 1.5-1.3 2.3-3.1l3 1.5q-0.7 1.3-1.9 2.8-1.1 1.3-3 2.2-1.9 0.9-4.8 0.9zm-7.4-13.3h14q-0.2-3-2-4.7-1.9-1.7-4.8-1.7-3 0-4.9 1.7-1.8 1.7-2.3 4.7zm32.8 13.3q-2.8 0-5.1-1.3-2.4-1.3-3.8-3.8-1.3-2.5-1.3-6v-0.6q0-3.4 1.3-5.9 1.4-2.5 3.7-3.8 2.4-1.4 5.2-1.4 2.2 0 3.8 0.6 1.5 0.6 2.5 1.5 1 0.9 1.5 1.9h0.6v-12.7h3.5v30.9h-3.4v-3.5h-0.6q-0.9 1.6-2.7 2.9-1.9 1.2-5.2 1.2zm0.9-3.1q3.3 0 5.4-2.1 2.2-2.1 2.2-6v-0.4q0-3.8-2.2-5.9-2.1-2.2-5.4-2.2-3.3 0-5.5 2.2-2.1 2.1-2.1 5.9v0.4q0 3.9 2.1 6 2.2 2.1 5.5 2.1zm21.8 2.5h-3.5v-21.6h3.5zm-1.7-24.9q-1.1 0-1.9-0.7-0.8-0.8-0.8-1.9 0-1.2 0.8-1.9 0.8-0.8 1.9-0.8 1.2 0 1.9 0.8 0.7 0.7 0.7 1.9 0 1.1-0.7 1.9-0.7 0.7-1.9 0.7zm15.7 25.6q-2.3 0-4.1-0.8-1.9-0.8-2.9-2.3-1.1-1.5-1.1-3.7 0-2.2 1.1-3.6 1-1.5 2.9-2.2 1.8-0.7 4.1-0.7h7.3v-1.6q0-2.3-1.4-3.6-1.3-1.3-3.9-1.3-2.6 0-4.1 1.2-1.5 1.3-2 3.4l-3.3-1.1q0.6-1.8 1.7-3.2 1.2-1.6 3.1-2.4 1.9-0.9 4.6-0.9 4.1 0 6.4 2.1 2.4 2.1 2.4 6v9.8q0 1.3 1.2 1.3h2v2.9h-3.1q-1.5 0-2.3-0.7-0.9-0.9-0.9-2.3v-0.2h-0.6q-0.4 0.9-1.3 1.8-0.8 0.9-2.2 1.5-1.4 0.6-3.6 0.6zm0.4-3q3.1 0 5-1.8 1.9-1.9 1.9-5.2v-0.5h-7.2q-2 0-3.4 0.9-1.3 0.9-1.3 2.7 0 1.8 1.4 2.9 1.4 1 3.6 1z"/>
</svg>