<svg version="1.2" xmlns="http://www.w3.org/2000/svg" viewBox="0 0 5000 5000" width="144" height="144">
	<title>cm2025</title>
	<style>
		.s0 { fill: #ffffff } 
		.s1 { fill: #30bced } 
		.s2 { fill: #000000 } 
	</style>
	<path id="Shape 1" fill-rule="evenodd" class="s0" d="m2500 5000c-1382.5 0-2500-1117.5-2500-2500 0-1382.5 1117.5-2500 2500-2500 1382.5 0 2500 1117.5 2500 2500 0 1382.5-1117.5 2500-2500 2500z"/>
	<path id="cm" class="s1" aria-label="cm"  d="m1265.9 3276q-213.9 0-383.9-90-168.2-92.1-267-261-96.7-173.1-96.7-407.6v-33.5q0-236.6 96.7-404.9 98.8-171.6 267-261 170-92.7 383.9-92.7 210.9 0 357.1 80.7 149.1 75.7 234 207 87.1 125.4 110.7 273.4l-231.8 48.2q-14.1-109.2-70.9-198.6-52.8-90.8-153-144-97.5-54.2-243.5-54.2-145.9 0-263.5 69.2-114.4 63.8-183 189-66.2 121-66.2 291.8v25.7q0 170.8 66.2 294.5 68.6 122.5 183 192 117.6 63.5 263.5 63.5 220 0 333.5-111.5 116.8-116.6 145-286.1l231.8 50.8q-30.5 146.2-118.8 277.3-87.9 125.6-237 204-146.2 78-357.1 78z"/>
	<path id="cm" class="s2" aria-label="cm"  d="m2621.8 3234h-237.5v-1466.7h231.5v183.3h41.2q43.2-79.3 139-144.6 97-67 269.6-67 171.8 0 276.4 76 106.5 74.7 155.4 184.4h41.2q51-108.8 154.4-184.4 103.9-76 292-76 146.5 0 257 61 112.3 60.3 174 174 67 110.5 67 267.1v992.9h-237.5v-972.3q0-146.4-87.5-230.7-83.2-85.6-237.7-85.6-160.9 0-266.3 106.6-101.6 101-101.6 298.7v883.3h-237.5v-972.3q0-146.4-86.9-230.7-83.8-85.6-238.3-85.6-160.9 0-265.7 106.6-102.2 101-102.2 298.7z"/>
</svg>